<svg
   version="1.1"
   id="Ebene_1"
   x="0px"
   y="0px"
   viewBox="0 0 84.800012 84.800002"
   xml:space="preserve"
   width="84.800003"
   height="84.800003"
   xmlns="http://www.w3.org/2000/svg"
   xmlns:svg="http://www.w3.org/2000/svg"><defs
   id="defs440" />
<style
   type="text/css"
   id="style415">
	.logo-st0{fill:#4ECCA3;}
</style>
<g
   id="g435"
   transform="translate(-30.45,-20.45)">
	<path
   class="logo-st0"
   d="M 59.4,59.3 52.3,52.2 79.7,24.8 C 85.5,19 95,19 100.8,24.8 l 3.3,3.3 -7.1,7.1 -3.3,-3.3 c -1.9,-1.9 -5,-1.9 -7,0 z"
   id="path417" />
	<path
   class="logo-st0"
   d="M 69.4,28.1 62.3,35.2 59,31.9 C 57.1,30 54,30 52,31.9 l -3.3,3.3 -7.1,-7.1 3.3,-3.3 C 50.7,19 60.2,19 66,24.8 Z"
   id="path419" />
	<path
   class="logo-st0"
   d="m 110.9,56 -3.3,3.3 -7.1,-7.1 3.3,-3.3 c 1.9,-1.9 1.9,-5 0,-7 l -3.3,-3.3 7.1,-7.1 3.3,3.3 c 5.8,5.9 5.8,15.4 0,21.2 z"
   id="path421" />
	<path
   class="logo-st0"
   d="m 104.1,97.6 -3.3,3.3 c -5.8,5.8 -15.3,5.8 -21.1,0 l -3.3,-3.3 7.1,-7.1 3.3,3.3 c 1.9,1.9 5,1.9 7,0 l 3.3,-3.3 z"
   id="path423" />
	<path
   class="logo-st0"
   d="m 45.2,87 -7.1,7 -3.3,-3.3 C 29,84.9 29,75.4 34.8,69.6 l 3.3,-3.3 7.1,7.1 -3.3,3.3 c -1.9,1.9 -1.9,5 0,7 z"
   id="path425" />
	<g
   id="g429">
		<path
   class="logo-st0"
   d="m 76.4,49.3 7.1,-7.1 27.4,27.4 c 5.8,5.8 5.8,15.3 0,21.1 l -3.3,3.3 -7.1,-7.1 3.3,-3.3 c 1.9,-1.9 1.9,-5 0,-7 z"
   id="path427" />
	</g>
	<path
   class="logo-st0"
   d="m 86.4,66.4 7.1,7.1 -27.4,27.4 c -5.8,5.8 -15.3,5.8 -21.1,0 l -3.3,-3.3 7.1,-7.1 3.3,3.3 c 1.9,1.9 5,1.9 7,0 z"
   id="path431" />
	<path
   class="logo-st0"
   d="M 69.3,76.3 62.2,83.4 34.9,56 c -5.8,-5.8 -5.8,-15.3 0,-21.1 l 3.3,-3.3 7.1,7.1 -3.4,3.3 c -1.9,1.9 -1.9,5 0,7 z"
   id="path433" />
</g>
</svg>